<?xml version="1.0" encoding="utf-8"?>
<!-- Generator: Adobe Illustrator 27.5.0, SVG Export Plug-In . SVG Version: 6.00 Build 0)  -->
<svg version="1.1" xmlns="http://www.w3.org/2000/svg" xmlns:xlink="http://www.w3.org/1999/xlink" x="0px" y="0px"
	 viewBox="0 0 750 500" style="enable-background:new 0 0 750 500;" xml:space="preserve">
<g id="BACKGROUND">
	<rect x="0.166" y="0.499" style="fill:#FFFFFF;" width="750" height="500"/>
</g>
<g id="OBJECTS">
	<g style="opacity:0.56;">
		<g>
			<path style="fill:#E6E9FC;" d="M147.43,456.381c-51.533-31.279-85.188-98.089-76.877-157.796
				c1.9-13.649,5.84-27.468,14.572-38.129c13.842-16.9,37.86-22.944,59.466-19.718c21.606,3.226,41.204,14.404,59.042,27.015
				c61.151,43.235,109.13,106.017,177.676,136.186c15.48,6.813,32.191,11.867,49.072,10.835
				c28.616-1.749,52.966-20.271,78.904-32.483c27.28-12.844,59.619-18.808,87.567-7.491c27.948,11.317,46.991,54.318,37.418,82.911"
				/>
		</g>
		<g>
			<g>
				<path style="fill:#E6E9FC;" d="M141.827,246.525c-9.91-3.154-20.672-3.283-30.708-0.606c-8.715,2.325-16.721,6.805-23.558,12.65
					c-14.385,12.299-22.838,30.059-25.931,48.52c-3.177,18.962-1.5,38.72,3.467,57.23c4.568,17.021,12.108,33.266,22.079,47.792
					c10.054,14.647,22.555,27.571,37,37.927c1.766,1.266,3.562,2.489,5.382,3.675c1.622,1.057,3.127-1.539,1.514-2.59
					c-14.388-9.379-27.073-21.353-37.391-35.079c-10.287-13.684-18.326-29.062-23.576-45.36
					c-5.565-17.274-8.132-35.689-6.681-53.814c1.49-18.625,7.864-37.118,20.78-50.932c5.768-6.169,12.684-11.294,20.465-14.634
					c9.094-3.904,19.393-5.261,29.169-3.633c2.438,0.406,4.837,0.997,7.192,1.746C142.874,250.005,143.663,247.109,141.827,246.525
					L141.827,246.525z"/>
			</g>
		</g>
		<g>
			<g>
				<path style="fill:#E6E9FC;" d="M449.939,421.327c17.523-9.712,35.588-18.453,54.102-26.112
					c18.531-7.665,37.539-14.495,56.894-19.778c18.566-5.067,38.879-8.419,57.661-2.487c14.497,4.578,28.366,14.792,33.654,29.507
					c2.662,7.408,2.291,15.231,0.945,22.881c-1.449,8.239-3.922,16.272-6.617,24.178c-0.585,1.716-1.182,3.426-1.783,5.136
					c-0.642,1.825,2.256,2.61,2.893,0.797c2.759-7.849,5.422-15.753,7.289-23.87c1.82-7.911,3.136-16.345,1.679-24.425
					c-2.844-15.763-15.951-28.063-30.06-34.352c-17.834-7.949-37.824-6.866-56.496-2.735c-10.232,2.263-20.271,5.379-30.218,8.657
					c-9.723,3.205-19.353,6.692-28.874,10.456c-19.09,7.547-37.75,16.182-55.843,25.878c-2.256,1.209-4.502,2.435-6.741,3.676
					C446.736,419.672,448.247,422.264,449.939,421.327L449.939,421.327z"/>
			</g>
		</g>
		<g>
			<circle style="fill:#E6E9FC;" cx="529.852" cy="295.431" r="8.646"/>
			<path style="fill:#E6E9FC;" d="M551.135,267.498c0-1.469-1.191-2.66-2.66-2.66c-1.469,0-2.66,1.191-2.66,2.66
				c0,1.469,1.191,2.66,2.66,2.66C549.944,270.158,551.135,268.967,551.135,267.498z"/>
			
				<ellipse transform="matrix(0.0382 -0.9993 0.9993 0.0382 267.1576 1022.7274)" style="fill:#E6E9FC;" cx="664.864" cy="372.581" rx="5.986" ry="5.986"/>
			<path style="fill:#E6E9FC;" d="M510.565,232.914c0-1.837-1.489-3.325-3.325-3.325c-1.837,0-3.326,1.489-3.326,3.325
				c0,1.837,1.489,3.325,3.326,3.325C509.076,236.239,510.565,234.75,510.565,232.914z"/>
			
				<ellipse transform="matrix(0.3827 -0.9239 0.9239 0.3827 172.3011 570.7251)" style="fill:#E6E9FC;" cx="513.225" cy="156.429" rx="7.981" ry="7.981"/>
			<path style="fill:#E6E9FC;" d="M408.807,73.294c0-3.306-2.68-5.986-5.986-5.986c-3.306,0-5.986,2.68-5.986,5.986
				s2.68,5.986,5.986,5.986C406.128,79.28,408.807,76.6,408.807,73.294z"/>
			<circle style="fill:#E6E9FC;" cx="127.478" cy="224.933" r="4.656"/>
			<circle style="fill:#E6E9FC;" cx="151.421" cy="99.897" r="11.306"/>
			<path style="fill:#E6E9FC;" d="M184.01,93.246c0-1.837-1.489-3.325-3.325-3.325c-1.837,0-3.326,1.489-3.326,3.325
				c0,1.837,1.489,3.325,3.326,3.325C182.521,96.572,184.01,95.083,184.01,93.246z"/>
			<path style="fill:#E6E9FC;" d="M116.171,161.75c0-1.102-0.893-1.995-1.995-1.995c-1.102,0-1.995,0.893-1.995,1.995
				c0,1.102,0.893,1.995,1.995,1.995C115.278,163.745,116.171,162.852,116.171,161.75z"/>
			<path style="fill:#E6E9FC;" d="M298.404,140.467c0-3.306-2.68-5.986-5.986-5.986c-3.306,0-5.986,2.68-5.986,5.986
				c0,3.306,2.68,5.986,5.986,5.986C295.724,146.453,298.404,143.773,298.404,140.467z"/>
			<path style="fill:#E6E9FC;" d="M668.19,213.626c0-3.306-2.68-5.986-5.986-5.986c-3.306,0-5.986,2.68-5.986,5.986
				c0,3.306,2.68,5.986,5.986,5.986C665.51,219.612,668.19,216.932,668.19,213.626z"/>
		</g>
	</g>
	<g>
		<g>
			<path style="fill:none;stroke:#B2AEEE;stroke-miterlimit:10;" d="M165.387,457.711c0,0,83.135-156.959,82.47-154.964"/>
			<line style="fill:none;stroke:#B2AEEE;stroke-miterlimit:10;" x1="155.411" y1="393.864" x2="199.972" y2="393.864"/>
			<line style="fill:none;stroke:#B2AEEE;stroke-miterlimit:10;" x1="168.048" y1="368.59" x2="212.608" y2="368.59"/>
			<line style="fill:none;stroke:#B2AEEE;stroke-miterlimit:10;" x1="130.803" y1="437.094" x2="175.364" y2="437.094"/>
			<line style="fill:none;stroke:#B2AEEE;stroke-miterlimit:10;" x1="143.44" y1="415.146" x2="188" y2="415.146"/>
			<path style="fill:none;stroke:#B2AEEE;stroke-miterlimit:10;" d="M120.827,457.711c0,0,83.135-156.959,82.47-154.964"/>
		</g>
		<g>
			<path style="fill:none;stroke:#1E334D;stroke-width:1.0871;stroke-linecap:round;stroke-miterlimit:10;" d="M86.896,457.08
				c3.254,0,601.567,0,601.567,0"/>
			<g>
				<g>
					<path style="fill:#25334C;" d="M570.242,338.492H158.973v-11.746c0-9.272,7.516-16.788,16.788-16.788h377.693
						c9.272,0,16.788,7.516,16.788,16.788V338.492z"/>
				</g>
				<g>
					
						<line style="fill:none;stroke:#1C2955;stroke-width:4.8958;stroke-miterlimit:10;" x1="268.521" y1="337.863" x2="268.521" y2="455.787"/>
					
						<line style="fill:none;stroke:#1C2955;stroke-width:4.8958;stroke-miterlimit:10;" x1="162.121" y1="455.787" x2="162.121" y2="337.863"/>
					
						<line style="fill:none;stroke:#1C2955;stroke-width:2.1585;stroke-miterlimit:10;" x1="162.121" y1="415.598" x2="568.065" y2="415.598"/>
				</g>
				<g>
					
						<line style="fill:none;stroke:#1C2955;stroke-width:4.8958;stroke-miterlimit:10;" x1="567.578" y1="337.863" x2="567.578" y2="455.787"/>
					
						<line style="fill:none;stroke:#1C2955;stroke-width:4.8958;stroke-miterlimit:10;" x1="461.177" y1="455.787" x2="461.177" y2="337.863"/>
				</g>
				<rect x="155.195" y="336.603" style="fill:#1C2955;" width="416.16" height="6.296"/>
				<g>
					<path style="fill:#1C2955;" d="M155.195,456.529v-0.336c0-2.892,2.344-5.236,5.236-5.236h4.851
						c2.892,0,5.236,2.344,5.236,5.236"/>
					<path style="fill:#1C2955;" d="M276.077,456.529h-13.851v-0.303c0-2.614,2.119-4.733,4.733-4.733h4.385
						c2.614,0,4.733,2.119,4.733,4.733V456.529z"/>
					<path style="fill:#1C2955;" d="M469.361,456.529H455.51v-0.303c0-2.614,2.119-4.733,4.733-4.733h4.385
						c2.614,0,4.733,2.119,4.733,4.733V456.529z"/>
					<path style="fill:#1C2955;" d="M574.503,456.529h-13.851v-0.303c0-2.614,2.119-4.733,4.733-4.733h4.385
						c2.614,0,4.733,2.119,4.733,4.733V456.529z"/>
				</g>
			</g>
		</g>
	</g>
	<g>
		<g>
			<circle style="fill:#E6E9FC;" cx="210.659" cy="171.64" r="69.899"/>
			<g>
				<g>
					<g>
						<path style="fill:#B2AEEE;" d="M153.967,218.982h64.521c10.469,0,18.955-8.486,18.955-18.955v-55.803
							c0-10.469-8.487-18.955-18.955-18.955h-64.521c-10.469,0-18.955,8.486-18.955,18.955v55.803
							C135.012,210.495,143.498,218.982,153.967,218.982z"/>
					</g>
					<g>
						<g>
							<path style="fill:#1C3255;" d="M212.161,206.729c8.687,2.211,18.448,6.406,16.398-10.762
								c-1.583-13.255-16.376-46.825-25.871-50.927c-9.495-4.103-13.473-1.934-14.93,11.878
								C186.209,171.622,184.047,199.573,212.161,206.729z"/>
							<g>
								<path style="fill:#E6E6E6;" d="M209.094,173.335l4.476-1.155c-1.359-5.264-3.966-7.481-5.914-8.415
									c-1.974-0.946-3.678-0.82-4.292-0.729c-5.079,0.343-9.243-1.712-12.383-6.116c-2.575-3.613-3.927-8.113-4.303-10.868
									l-4.58,0.624c0.468,3.434,2.058,8.634,5.118,12.927c4.104,5.758,9.846,8.536,16.588,8.036l0.264-0.033
									C204.567,167.549,207.579,167.463,209.094,173.335z"/>
							</g>
							<g>
								<g>
									<path style="fill:#E6E6E6;" d="M195.517,163.172c-0.038,4.782,1.45,9.508,4.245,13.39c0.43,0.598,1.434,0.022,0.998-0.583
										c-2.684-3.729-4.123-8.211-4.087-12.807C196.678,162.428,195.523,162.428,195.517,163.172L195.517,163.172z"/>
								</g>
							</g>
							<g>
								<g>
									<path style="fill:#E6E6E6;" d="M197.053,170.464c8.884,3.05,15.742,10.868,17.678,20.048
										c0.153,0.727,1.268,0.42,1.114-0.307c-2.021-9.582-9.234-17.679-18.486-20.855
										C196.655,169.107,196.352,170.223,197.053,170.464L197.053,170.464z"/>
								</g>
							</g>
							<g>
								<g>
									<path style="fill:#E6E6E6;" d="M206.96,176.192c-2.684,5.676-3.719,12.011-2.914,18.243c0.094,0.727,1.251,0.737,1.156,0
										c-0.778-6.023,0.158-12.165,2.756-17.66C208.274,176.107,207.278,175.519,206.96,176.192L206.96,176.192z"/>
								</g>
							</g>
						</g>
						<g>
							<path style="fill:#1C3255;" d="M156.726,206.729c-8.687,2.211-18.448,6.406-16.398-10.762
								c1.583-13.255,16.376-46.825,25.871-50.927c9.495-4.103,13.473-1.934,14.93,11.878
								C182.679,171.622,184.841,199.573,156.726,206.729z"/>
							<g>
								<path style="fill:#E6E6E6;" d="M159.188,172.219c0.373-2.985,4.43-4.644,6.137-4.576c0.286,0.012,0.569,0.017,0.848,0.017
									c13.567,0,19.036-13.322,20.129-21.345c0.695-5.099,0.047-19.779,0.019-20.401l-4.618,0.207
									c0.007,0.148,0.658,14.882,0.019,19.57c-0.249,1.83-2.829,17.863-16.212,17.333c-1.95-0.081-4.4,0.679-6.41,1.977
									c-2.573,1.66-4.171,4.02-4.499,6.645L159.188,172.219z"/>
							</g>
							<g>
								<g>
									<path style="fill:#E6E6E6;" d="M173.04,163.172c0.037,4.596-1.403,9.078-4.087,12.807
										c-0.435,0.605,0.567,1.182,0.998,0.583c2.794-3.883,4.283-8.609,4.245-13.39
										C174.19,162.429,173.034,162.427,173.04,163.172L173.04,163.172z"/>
								</g>
							</g>
							<g>
								<g>
									<path style="fill:#E6E6E6;" d="M172.353,169.349c-9.252,3.176-16.464,11.273-18.486,20.855
										c-0.153,0.726,0.961,1.036,1.115,0.307c1.936-9.18,8.794-16.998,17.678-20.048
										C173.359,170.224,173.059,169.107,172.353,169.349L172.353,169.349z"/>
								</g>
							</g>
							<g>
								<g>
									<path style="fill:#E6E6E6;" d="M161.755,176.775c2.599,5.495,3.534,11.636,2.756,17.66c-0.095,0.736,1.062,0.729,1.156,0
										c0.805-6.232-0.23-12.567-2.914-18.243C162.435,175.52,161.439,176.106,161.755,176.775L161.755,176.775z"/>
								</g>
							</g>
						</g>
						<g>
							<g>
								<path style="fill:#E6E6E6;" d="M207.882,155.72c-5.552,0.997-10.751,3.426-15.11,6.999
									c-0.576,0.472,0.246,1.285,0.817,0.817c4.206-3.447,9.252-5.742,14.6-6.702C208.92,156.703,208.611,155.589,207.882,155.72
									L207.882,155.72z"/>
							</g>
						</g>
						<g>
							<g>
								<path style="fill:#E6E6E6;" d="M174.682,161.576c-2.979-3.384-7.139-5.656-11.6-6.316c-0.728-0.108-1.042,1.006-0.307,1.115
									c4.288,0.635,8.225,2.765,11.09,6.019C174.357,162.952,175.172,162.132,174.682,161.576L174.682,161.576z"/>
							</g>
						</g>
					</g>
				</g>
				<g>
					
						<ellipse transform="matrix(0.985 -0.1728 0.1728 0.985 -19.9076 23.9042)" style="fill:#B46DD6;" cx="127.318" cy="126.274" rx="18.651" ry="18.651"/>
					<polyline style="fill:none;stroke:#FFFFFF;stroke-width:3.0317;stroke-linecap:round;stroke-miterlimit:10;" points="
						117.993,126.306 123.937,132.249 135.383,120.802 					"/>
				</g>
			</g>
		</g>
		<g>
			<g>
				<g>
					<polygon style="fill:#F69491;" points="250.225,302.645 249.095,300.413 242.369,300.656 242.217,302.645 245.378,308.128 
						251.068,303.741 					"/>
					<path style="fill:#D46F6C;" d="M246.121,300.637l-0.282,5.181c0,0-1.748-0.992-3.79-2.823l0.281-2.933L246.121,300.637z"/>
					<path style="fill:#B46DD6;" d="M250.631,302.568c0,0-1.976-0.038-4.275,1.706c-1.369,1.038-3.437-1.103-4.07-1.657
						c-0.129-0.113-0.304-0.012-0.326,0.188l-0.795,7.242h20.018c0.233,0,0.422-0.245,0.422-0.548v-1.524
						c0-0.236-0.116-0.446-0.288-0.52L250.631,302.568z"/>
					
						<line style="fill:none;stroke:#FFFFFF;stroke-width:0.2842;stroke-miterlimit:10;" x1="251.756" y1="302.948" x2="248.533" y2="304.812"/>
					
						<line style="fill:none;stroke:#FFFFFF;stroke-width:0.2842;stroke-miterlimit:10;" x1="253.16" y1="303.667" x2="249.938" y2="305.531"/>
				</g>
				<g>
					<polygon style="fill:#F69491;" points="203.376,299.65 203.561,297.156 198.751,293.176 196.518,295.518 196.395,301.846 
						203.532,301.025 					"/>
					<path style="fill:#D46F6C;" d="M201.357,293.824l-3.006,6c0,0-0.985-1.751-1.79-4.374l2.911-2.956L201.357,293.824z"/>
					<path style="fill:#B46DD6;" d="M204.065,299.917c0,0-1.577-1.191-4.463-1.13c-1.718,0.037-2.134-2.911-2.322-3.731
						c-0.038-0.167-0.239-0.188-0.375-0.039l-4.896,5.395l16.203,11.755c0.188,0.137,0.485,0.049,0.663-0.197l0.895-1.234
						c0.139-0.191,0.168-0.429,0.072-0.59L204.065,299.917z"/>
					
						<line style="fill:none;stroke:#FFFFFF;stroke-width:0.2842;stroke-miterlimit:10;" x1="204.845" y1="301.057" x2="201.122" y2="300.99"/>
					
						<line style="fill:none;stroke:#FFFFFF;stroke-width:0.2842;stroke-miterlimit:10;" x1="205.677" y1="302.397" x2="201.954" y2="302.331"/>
				</g>
				<path style="fill:#0E162E;" d="M263.327,126.488c0.686-0.584,1.201-0.774-0.419-2.244c-1.62-1.47-10.429,3.212-11.188,2.143
					c-0.759-1.069-0.946-1.798-3.402-0.995c-2.457,0.803-0.676,2.524-0.676,2.524c-1.967,0.134-0.841,3.091-0.841,3.091
					c-0.973,1.512-0.641,7.057-0.641,7.057l0.005,0.063l2.044,1.747l0.096-0.117l0,0l0,0l0.096-0.117l-0.159-0.136l4.382-2.972
					c0.343-0.142,1.627-0.552,2.721-1.823c0.862-1.001,2.034-0.137,3.025-0.302c0.44-0.074,0.894-0.397,1.243-0.709
					c0.657-0.229,1.175-0.711,1.571-1.316c3.199-0.023,5.775-3.169,1.09-4.993C262.273,127.389,262.641,127.072,263.327,126.488z
					 M246.923,138.284c0.25,0.143,0.6,0.402,0.877,0.841l-0.444-0.379L246.923,138.284z"/>
				<g>
					<path style="fill:#25334C;" d="M248.975,214.992c0,0,2.574,30.795,2.816,39.303c0.242,8.508-1.466,46.44-1.466,46.44
						l-10.71,0.19c0,0-7.482-63.636-17.883-84.156L248.975,214.992z"/>
					<path style="fill:none;stroke:#FFFFFF;stroke-width:0.2842;stroke-miterlimit:10;" d="M235.986,216.617
						c0,0,7.326,35.576,7.326,41.038c0,5.462,1.081,42.999,1.081,42.999"/>
					
						<line style="fill:none;stroke:#FFFFFF;stroke-width:0.2842;stroke-miterlimit:10;" x1="239.069" y1="296.782" x2="250.418" y2="296.782"/>
				</g>
				<g>
					<path style="fill:#7692E0;" d="M249.299,220.277c0,0-5.321,32.257-9.644,40.237c-9.612,12.119-32.948,39.163-32.948,39.163
						l-9.285-7.572l22.289-32.757c1.271-1.868,2.366-3.852,3.273-5.926c3.422-7.83-5.406-32.118-2.316-42.744L249.299,220.277z"/>
					<g>
						<path style="fill:none;stroke:#0E162E;stroke-width:0.2842;stroke-miterlimit:10;" d="M234.999,217.949
							c0,0,0.488,34.577-3.658,38.575c-4.146,3.998-30.04,38.741-30.04,38.741"/>
						
							<line style="fill:none;stroke:#0E162E;stroke-width:0.2842;stroke-miterlimit:10;" x1="200.027" y1="288.503" x2="209.893" y2="296.096"/>
					</g>
				</g>
				<g>
					<path style="fill:#F69491;" d="M282.358,182.809c0,0-19.622,13.021-23.121,11.674c-3.499-1.347-15.18-36.119-6.502-37.572
						c0,0,2.273-1.608,3.836,0.452c1.563,2.06,6.431,7.262,9.452,25.515c0,0,15.019-4.979,16.241-5.602"/>
					<path style="fill:#FFFFFF;" d="M267.047,179.424c0,0-5.688-31.668-18.041-25.525c-6.904,3.434,4.457,39.701,8.036,43.718
						l24.743-10.272l-0.913-9.555L267.047,179.424z"/>
				</g>
				<g>
					<path style="fill:#394971;" d="M240.627,150.641c0,0-13.434-1.503-16.618,9.202c-3.184,10.705-9.812,59.289-9.812,59.289
						l35.973,5.721l10.374-54.407c0.467-2.804,0.194-5.676-0.791-8.322c-0.91-2.443-1.992-5.224-2.881-5.536l-12.546-7.655
						L240.627,150.641z"/>
					<polyline style="fill:none;stroke:#FFFFFF;stroke-width:0.2532;stroke-miterlimit:10;" points="242.885,149.885 
						250.256,165.177 254.305,154.626 					"/>
					<g>
						<path style="fill:#FFFFFF;" d="M239.936,149.338c0,0,8.016,8.575,8.174,23.519c0.158,14.944-3.134,55.402-3.134,55.402
							l-34.41-5.948c0,0,9.553-53.149,10.768-56.382c1.214-3.233,0.771-12.583,10.939-14.906L239.936,149.338z"/>
						<path style="fill:#224382;" d="M238.393,149.946l0.222,17.276l4.218,1.602l-2.99,4.263l6.826,20.644
							c0,0,2.901-22.394-0.577-30.55c-3.478-8.156-6.584-11.864-6.584-11.864L238.393,149.946z"/>
						<path style="fill:#FFFFFF;" d="M237.911,149.672l2.823,15.932l3.204,1.825l-2.759,3.721l5.919,20.602
							c0,0,2.901-22.394-0.577-30.55c-3.478-8.156-3.125-13.273-3.125-13.273L237.911,149.672z"/>
					</g>
					<g>
						<path style="fill:#FFFFFF;" d="M253.186,160.081l-0.103,0.913l-4.782,65.602l8.212,1.96c0,0,6.202-58.09,5.255-61.791
							c-0.947-3.701-2.728-10.325-7.462-12.138L253.186,160.081z"/>
						<polygon style="fill:#224382;" points="250.352,191.521 257.447,175.372 254.886,171.527 258.487,168.194 256,155.933 
							254.198,155.234 						"/>
						<polygon style="fill:#FFFFFF;" points="249.717,189.656 256.812,173.506 254.251,169.662 257.852,166.328 255.365,154.068 
							253.563,153.369 						"/>
					</g>
				</g>
				<g>
					<path style="fill:#25334C;" d="M237.496,158.648c0,0-26.904,22.993-24.078,29.492c1.656,3.809,7.434,0.337,11.934-3.189
						c3.598-2.82,6.226-6.688,7.547-11.064L237.496,158.648z"/>
					<path style="fill:#F69491;" d="M205.237,211.957l8.672-0.896c0,0,2.634,8.051,2.286,9.252
						c-0.666,2.293-2.845-3.098-2.845-3.098s0.609,11.934-0.134,11.902s-1.506-4.827-1.864-6.926
						c-0.357-2.099,1.04,7.04,0.427,7.461c-1.106,0.758-2.945-6.005-2.866-7.862c0,0,0.315,8.349-0.236,7.284
						s-1.552-2.001-1.75-6.103c-0.198-4.102,0.038,4.654-0.535,4.744C204.929,227.945,205.237,211.957,205.237,211.957z"/>
					<path style="fill:#FFFFFF;" d="M235.593,164.636c0,0,6.758-7.498,0.132-11.343c-5.824-3.379-17.669,3.65-29.209,25.867
						c-2.619,5.042-4.292,28.729-2.572,35.452l13.037-3.642l1.814-22.961L235.593,164.636z"/>
				</g>
				<path style="fill:#FFFFFF;" d="M247.098,191.751c-0.05,0.59-0.246,1.055-0.439,1.04c-0.192-0.015-0.308-0.505-0.258-1.095
					c0.05-0.59,0.246-1.055,0.439-1.04C247.032,190.672,247.148,191.162,247.098,191.751z"/>
				<g>
					<path style="fill:#F69491;" d="M246.896,141.692l-2.37,7.232l5.686,12.08l2.4-7.129l0.733-6.242l-4.942-6.895
						c0,0-1.091,0.468-1.263,0.687C246.968,141.644,246.896,141.692,246.896,141.692z"/>
					<path style="fill:#0E162E;" d="M248.402,140.738l4.942,6.895l-0.353,3.731c0,0-5.248-2.745-4.443-7.399"/>
				</g>
				<g>
					<path style="fill:#F69491;" d="M248.251,138.547c-0.116,0.18-0.37,0.185-0.486,0.008c-0.394-0.6-1.244-1.489-2.025,0.39
						c-1.061,2.552,1.811,2.695,1.954,3.1c0.291,0.822,1.2,3.57,3.138,4.98c1.181,0.859,3.095,1.369,4.817,0.309
						c1.722-1.06,2.157,0.015,4.728-14.75c0,0-0.926,1.119-1.936,1.24s-2.335,0.156-3.34-0.374c-0.816-0.43-2.211,4.044-3.943-0.296
						C250.384,134.44,248.936,137.49,248.251,138.547z"/>
					<g>
						<path style="fill:#EC8492;" d="M246.198,138.837l1.225,1.421C247.423,140.258,247.455,137.47,246.198,138.837z"/>
						<path style="fill:#0E162E;" d="M257.003,139.629c-0.069,0.32-0.252,0.551-0.408,0.518c-0.156-0.034-0.227-0.32-0.157-0.64
							c0.069-0.32,0.252-0.551,0.408-0.518C257.002,139.023,257.072,139.31,257.003,139.629z"/>
						<path style="fill:#0E162E;" d="M258.905,139.744c-0.069,0.32-0.252,0.551-0.408,0.518c-0.156-0.034-0.227-0.32-0.158-0.64
							c0.069-0.32,0.252-0.551,0.408-0.518C258.904,139.138,258.974,139.425,258.905,139.744z"/>
						<path style="fill:#0E162E;" d="M255.164,136.619c-0.482,0.202,0.46-0.98,1.062-1.004c0.602-0.024,1.102,0.387,1.117,0.917
							C257.343,136.532,256.324,136.134,255.164,136.619z"/>
						<path style="fill:#0E162E;" d="M259.501,137.411c-0.583-0.208-1.038-0.195-1.038-0.195c0.181-0.46,0.697-0.698,1.221-0.598"/>
						<path style="fill:#D46F6C;" d="M258.042,139.54l0.331,2.639c0.005,0.043-0.029,0.081-0.069,0.075l-1.034-0.143
							c-0.036-0.005-0.058-0.043-0.048-0.081l0.703-2.496C257.945,139.467,258.034,139.472,258.042,139.54z"/>
					</g>
				</g>
				<g>
					<path style="fill:#F69491;" d="M282.264,177.275c0,0,4.658-6.421,4.067-4.46c-0.61,2.021-0.888,2.909-0.888,2.909
						s6.483-1.697,6.777-1.462c0.912,0.733-4.351,2.59-4.351,2.59s4.702-1.824,5.053-1.059c0.351,0.765-4.233,2.443-4.233,2.443
						s5.185-2.065,4.542-1.084c-0.643,0.981-4.286,2.69-4.286,2.69s4.155-1.685,3.612-0.768c-0.543,0.916-10.345,3.618-10.345,3.618
						"/>
					<g>
						<g>
							<g>
								<path style="fill:#98B4F0;" d="M287.286,178.468c0.546-4.22-0.881-7.599-4.18-10.295c-2.927-2.391-6.112-4.451-10.004-3.848
									c-2.953,0.458-5.649,1.955-8.285,3.28c-2.016,1.013-4.76,2.661-7.115,1.981c-1.416-0.409-2.269-1.721-2.831-3.002
									c-1.137-2.591-1.476-5.554-1.74-8.339c-0.082-0.87-1.453-0.879-1.37,0c0.349,3.685,0.698,8.82,3.622,11.543
									c1.809,1.684,4.245,1.463,6.412,0.678c4.953-1.793,10.862-7.004,16.308-4.019c2.587,1.418,5.41,3.291,6.928,5.902
									c1.099,1.891,1.159,4.002,0.885,6.119C285.803,179.339,287.174,179.331,287.286,178.468L287.286,178.468z"/>
							</g>
						</g>
						<g>
							<path style="fill:#98B4F0;" d="M284.365,180.439c0.191-0.495,0.388-1,0.731-1.404c0.343-0.405,0.865-0.697,1.39-0.626
								c0.694,0.095,1.161,0.77,1.376,1.436c0.101,0.312,0.167,0.634,0.195,0.961c0.008,0.087-0.001,0.197-0.082,0.229
								c-0.048,0.019-0.102,0-0.151-0.017c-1.022-0.363-2.191-0.073-3.21-0.448"/>
						</g>
						<path style="fill:#4E6FD4;" d="M287.985,181.855l-3.784-0.819c-0.246-0.053-0.402-0.296-0.349-0.542l0,0
							c0.053-0.246,0.296-0.402,0.542-0.349l3.784,0.819c0.246,0.053,0.402,0.296,0.349,0.542l0,0
							C288.474,181.752,288.231,181.908,287.985,181.855z"/>
					</g>
					<g>
						<g>
							<g>
								<g>
									<path style="fill:#98B4F0;" d="M246.861,139.337c-5.489-1.182-3.676,6.839-2.847,9.624
										c0.602,2.021,1.324,4.162,2.453,5.959c1.73,2.754,5.714,4.988,8.573,2.527c2.743-2.36,2.43-6.954,2.542-10.213
										c0.03-0.882-1.339-0.88-1.37,0c-0.092,2.666,0.117,5.789-1.269,8.181c-0.922,1.592-2.646,2.158-4.326,1.381
										c-1.123-0.52-2.324-1.549-2.922-2.494c-0.918-1.452-1.527-3.128-2.062-4.751c-0.643-1.953-1.208-4.019-1.261-6.086
										c-0.038-1.497,0.252-3.21,2.124-2.806C247.356,140.843,247.723,139.523,246.861,139.337L246.861,139.337z"/>
								</g>
							</g>
						</g>
						<path style="fill:#4E6FD4;" d="M247.344,138.674l-0.302,0.047c-0.621,0.096-1.046,0.677-0.95,1.297l0.001,0.004
							c0.096,0.62,0.677,1.046,1.297,0.95l0.302-0.047L247.344,138.674z"/>
					</g>
				</g>
			</g>
		</g>
	</g>
	<g>
		<g>
			
				<ellipse transform="matrix(0.7071 -0.7071 0.7071 0.7071 28.7581 350.3363)" style="fill:#E6E9FC;" cx="437.272" cy="140.454" rx="62.398" ry="62.398"/>
			<g>
				<g>
					<g>
						<g>
							<path style="fill:#FFFFFF;" d="M449.833,182.929h0.006c4.961,0,8.983-4.022,8.983-8.983v-56.917h-17.973v56.917
								C440.849,178.907,444.871,182.929,449.833,182.929z"/>
							<path style="fill:#B46DD6;" d="M456.365,173.946v-35.404h-13.059v35.404c0,3.604,2.922,6.526,6.526,6.526h0.006
								C453.443,180.472,456.365,177.55,456.365,173.946z"/>
							<path style="fill:#B46DD6;" d="M441.449,121.385h17.047c1.233,0,2.233-1,2.233-2.233v-6.673c0-1.233-1-2.233-2.233-2.233
								h-17.047c-1.233,0-2.233,1-2.233,2.233v6.673C439.216,120.385,440.215,121.385,441.449,121.385z"/>
							
								<rect x="449.564" y="142.081" transform="matrix(-1 -1.224647e-16 1.224647e-16 -1 908.3862 314.9345)" style="fill:#A3C3FC;" width="9.259" height="30.772"/>
							
								<line style="fill:none;stroke:#FBFAF6;stroke-width:0.8189;stroke-miterlimit:10;" x1="455.918" y1="145.168" x2="455.918" y2="167.498"/>
							
								<line style="fill:none;stroke:#FBFAF6;stroke-width:0.8189;stroke-miterlimit:10;" x1="453.013" y1="145.168" x2="453.013" y2="167.498"/>
						</g>
						<g>
							
								<line style="fill:none;stroke:#FBFAF6;stroke-width:0.5808;stroke-linecap:round;stroke-miterlimit:10;" x1="456.297" y1="111.869" x2="456.297" y2="119.209"/>
							
								<line style="fill:none;stroke:#FBFAF6;stroke-width:0.5808;stroke-linecap:round;stroke-miterlimit:10;" x1="452.047" y1="111.869" x2="452.047" y2="119.209"/>
							
								<line style="fill:none;stroke:#FBFAF6;stroke-width:0.5808;stroke-linecap:round;stroke-miterlimit:10;" x1="447.798" y1="111.869" x2="447.798" y2="119.209"/>
							
								<line style="fill:none;stroke:#FBFAF6;stroke-width:0.5808;stroke-linecap:round;stroke-miterlimit:10;" x1="443.548" y1="111.869" x2="443.548" y2="119.209"/>
						</g>
						<path style="fill:#E6E9FC;" d="M441.449,121.385c0.747,0.528,17.552,10.572,17.552,10.572l-0.505-10.572H441.449z"/>
					</g>
					<g>
						<g>
							<path style="fill:#FFFFFF;" d="M426.348,153h0.006c4.961,0,8.983-4.022,8.983-8.983V87.099h-17.973v56.918
								C417.365,148.978,421.387,153,426.348,153z"/>
							<path style="fill:#B46DD6;" d="M432.88,144.017v-35.404h-13.059v35.404c0,3.604,2.922,6.526,6.526,6.526h0.006
								C429.958,150.543,432.88,147.621,432.88,144.017z"/>
							<path style="fill:#B46DD6;" d="M417.964,91.457h17.046c1.233,0,2.233-1,2.233-2.233V82.55c0-1.233-1-2.233-2.233-2.233
								h-17.046c-1.233,0-2.233,1-2.233,2.233v6.673C415.731,90.457,416.73,91.457,417.964,91.457z"/>
							
								<rect x="426.079" y="112.153" transform="matrix(-1 -1.224647e-16 1.224647e-16 -1 861.4162 255.0772)" style="fill:#A3C3FC;" width="9.259" height="30.772"/>
							
								<line style="fill:none;stroke:#FBFAF6;stroke-width:0.8189;stroke-miterlimit:10;" x1="432.433" y1="115.239" x2="432.433" y2="137.569"/>
							
								<line style="fill:none;stroke:#FBFAF6;stroke-width:0.8189;stroke-miterlimit:10;" x1="429.528" y1="115.239" x2="429.528" y2="137.569"/>
						</g>
						<g>
							
								<line style="fill:none;stroke:#FBFAF6;stroke-width:0.5808;stroke-linecap:round;stroke-miterlimit:10;" x1="432.812" y1="81.94" x2="432.812" y2="89.28"/>
							
								<line style="fill:none;stroke:#FBFAF6;stroke-width:0.5808;stroke-linecap:round;stroke-miterlimit:10;" x1="428.562" y1="81.94" x2="428.562" y2="89.28"/>
							
								<line style="fill:none;stroke:#FBFAF6;stroke-width:0.5808;stroke-linecap:round;stroke-miterlimit:10;" x1="424.313" y1="81.94" x2="424.313" y2="89.28"/>
							
								<line style="fill:none;stroke:#FBFAF6;stroke-width:0.5808;stroke-linecap:round;stroke-miterlimit:10;" x1="420.063" y1="81.94" x2="420.063" y2="89.28"/>
						</g>
						<path style="fill:#E6E9FC;" d="M417.964,91.457c0.097,0.028,16.455,9.728,17.552,10.572l-0.506-10.572H417.964z"/>
					</g>
					<g>
						<path style="fill:#B46DD6;" d="M443.393,90.196c0-4.3,7.786-15.871,7.786-15.871s7.786,11.571,7.786,15.871
							c0,4.3-3.486,7.786-7.786,7.786S443.393,94.496,443.393,90.196z"/>
						<path style="fill:#9455B5;" d="M457.865,86.684c-0.152,0.629-0.359,1.25-0.672,1.84c-0.784,1.478-1.842,2.793-3.017,3.979
							c-2.685,2.712-7.429,2.763-10.102,0c-0.137-0.142-0.255-0.291-0.385-0.436c-0.025-0.014-0.047-0.033-0.072-0.047
							c0.823,3.418,3.891,5.961,7.562,5.961c4.3,0,7.786-3.486,7.786-7.786c0-0.956-0.397-2.28-0.996-3.747
							C457.932,86.527,457.903,86.607,457.865,86.684z"/>
						<g>
							
								<rect x="450.366" y="86.058" transform="matrix(-1 -1.224647e-16 1.224647e-16 -1 902.7455 178.5119)" style="fill:#FFFFFF;" width="2.013" height="6.396"/>
							
								<rect x="450.366" y="86.058" transform="matrix(-1.836970e-16 1 -1 -1.836970e-16 540.6287 -362.1168)" style="fill:#FFFFFF;" width="2.013" height="6.396"/>
						</g>
					</g>
				</g>
			</g>
		</g>
		<g>
			<g>
				<g>
					<g>
						<g>
							<g>
								<g>
									<g>
										<polygon style="fill:#F69491;" points="457.58,296.814 454.678,309.431 435.372,309.431 435.372,307.906 446.35,301.528 
											447.696,297.045 										"/>
										<path style="fill:#E8716F;" d="M446.35,301.528c0.636-0.406,11.23-4.714,11.23-4.714l-9.884,0.231L446.35,301.528z"/>
										<path style="fill:#E6E9FC;stroke:#E6E9FC;stroke-width:1.211;stroke-miterlimit:10;" d="M446.211,301.528l3.268,3.496
											c0.859,0.919,2.22,0.949,3.111,0.067l3.716-3.702l-1.767,8.042h-19.306v-1.525L446.211,301.528z"/>
									</g>
								</g>
								<g>
									<g>
										<polygon style="fill:#F69491;" points="480.917,296.983 483.131,309.317 502.002,309.317 502.002,307.826 
											491.271,301.591 491.072,297.209 										"/>
										<polygon style="fill:#E8716F;" points="491.271,301.591 491.072,297.209 480.917,296.983 										"/>
										<path style="fill:#E6E9FC;stroke:#E6E9FC;stroke-width:1.1838;stroke-miterlimit:10;" d="M491.477,301.591l-3.194,3.418
											c-0.84,0.898-2.17,0.927-3.041,0.065l-3.248-3.627l1.343,7.869h18.871v-1.491L491.477,301.591z"/>
									</g>
								</g>
								<g>
									<path style="fill:#7692E0;" d="M456.61,207.039l-12.128,92.945l14.429-0.119l9.692-58.305c0.788-2.386,3.429-2.362,4.274,0
										l7.513,58.54l14.656,0.652c0,0-1.3-58.175-11.828-97.545L456.61,207.039z"/>
									<path style="fill:#25334C;" d="M455.915,217.176c0,0-0.084,16.074,14.08,14.408c14.164-1.666,16.192-17.463,16.192-17.463
										L455.915,217.176z"/>
									<g>
										
											<line style="fill:none;stroke:#FFFFFF;stroke-width:0.4176;stroke-miterlimit:10;" x1="479.895" y1="296.465" x2="495.046" y2="296.54"/>
										
											<line style="fill:none;stroke:#FFFFFF;stroke-width:0.4176;stroke-miterlimit:10;" x1="445.084" y1="296.465" x2="459.132" y2="296.54"/>
									</g>
								</g>
							</g>
							<g>
								<path style="fill:#EE8881;" d="M419.227,203.761c0.08,0.736,6.814,0.502,6.814,0.502s9.448,0.807,15.523,0.944l12.59,1.091
									c2.73-4.536,10.017-43.844,2.54-42.553c-12.193,2.106-16.156,28.638-16.156,28.638l-13.503,2.892l0.003,0.098
									c-0.606-0.076-6.353,0.81-6.592,0.74c0,0-11.528,4.545-12.526,6.651c-0.998,2.106,5.764-1.441,6.651-1.884
									C415.458,200.435,419.227,203.761,419.227,203.761z"/>
								<path style="fill:#D46F6C;" d="M451.424,179.88c0.076,10.822,5.085,23.177,3.506,25.802l-9.066-0.568
									C448.581,201.063,449.501,197.381,451.424,179.88z"/>
								<path style="fill:#7692E0;" d="M439.791,191.657c0,0,2.714-24.587,14.132-29.02c7.072-2.747,5.538,33.064,2.808,37.599
									L439.791,191.657z"/>
								<path style="fill:#25334C;" d="M443.701,193.698l13.029,6.538c2.729-4.536,0.502-30.77-6.798-32.833L443.701,193.698z"/>
								
									<line style="fill:none;stroke:#FFFFFF;stroke-width:0.1213;stroke-miterlimit:10;" x1="439.967" y1="187.892" x2="457.766" y2="195.466"/>
							</g>
							<g>
								<path style="fill:#7692E0;" d="M481.191,170.063c-3.137-9.934-13.542-10.688-13.542-10.688l-4.698-1.315l-0.059,0.087
									l-6.281,8.169l-1.744-3.047l-0.117-1.223l-1.973,1.125c-0.881,0.288-4.008,4.705-4.656,7.187
									c-0.691,2.645-1.013,6.314-0.785,9.391l5.937,44.735l36.222-4.712C489.494,219.772,484.499,180.542,481.191,170.063z"/>
								
									<line style="fill:none;stroke:#FFFFFF;stroke-width:0.1213;stroke-miterlimit:10;" x1="452.946" y1="220.481" x2="488.443" y2="215.214"/>
								<polyline style="fill:none;stroke:#FFFFFF;stroke-width:0.1213;stroke-miterlimit:10;" points="453.421,162.826 
									455.474,174.165 465.17,158.461 								"/>
							</g>
							<g>
								<g>
									<path style="fill:#0F1032;" d="M456.271,147.664l-0.849-1.229c0,0-7.117,1.284-8.895,0.336
										c-1.777-0.949-1.855-4.418-1.855-4.418s-3.318-0.583-1.697-1.706s0.998-1.081,0.998-1.081s-4.614-0.624-2.203-2.702
										c2.411-2.078,15.923-0.758,15.923-0.758c2.607,0.497,4.547,13.52,0.136,13.233"/>
									<path style="fill:#F69491;" d="M445.562,142.827c0,0,1.368,12.565,5.229,16.151c1.663-0.249,2.558-1.93,3.575-2.078
										c-0.022-0.46,0.201,1.951-0.138,5.492c0.222,0.918,1.912,8.225,1.912,8.225l7.316-12.279l-3.428-9.215
										c0,0,0.664,0.06,1.078-0.981c0.232-0.583,0.336-2.039-0.375-3.194c-0.678-1.102-2.936-0.572-3.156,0.573
										c-0.07,0.364-0.392,0.795-0.916,0.371c-0.448-0.363-1.906-5.287-3.356-4.865c-3.137,0.911-4.908,1.482-6.446,1.705
										C445.825,142.883,445.562,142.827,445.562,142.827z"/>
									<path style="fill:#D46F6C;" d="M458.75,146.137c-0.024,0.124,1.041-1.347,1.799,0.546"/>
									<polygon style="fill:#D46F6C;" points="453.452,157.546 456.051,154.858 454.326,162.9 									"/>
									<g>
										<path style="fill:#0F1032;" d="M447.924,150.696c0.06,0.335-0.022,0.63-0.183,0.659c-0.162,0.029-0.342-0.219-0.402-0.553
											c-0.06-0.335,0.022-0.63,0.183-0.659C447.684,150.113,447.864,150.361,447.924,150.696z"/>
										<path style="fill:#0F1032;" d="M450.418,150.03c0.06,0.335-0.022,0.63-0.183,0.659c-0.162,0.029-0.342-0.219-0.402-0.553
											c-0.06-0.335,0.022-0.63,0.183-0.659C450.178,149.448,450.358,149.696,450.418,150.03z"/>
										<path style="fill:#D46F6C;" d="M448.38,148.919c0.088,0.964,0.125,3.54,0.125,3.54l1.583-0.308L448.38,148.919z"/>
									</g>
									<path style="fill:#0F1032;" d="M449.225,146.47c-0.234,0.054-0.993-0.555-0.168-0.863c0.835-0.312,2.136,0.232,2.326,0.444
										C451.574,146.262,450.511,146.17,449.225,146.47z"/>
									<path style="fill:#0F1032;" d="M446.318,148.504c-0.234,0.055-0.916-0.67-0.091-0.978c0.835-0.312,1.444,0.516,1.635,0.727
										C448.052,148.466,447.603,148.205,446.318,148.504z"/>
								</g>
							</g>
							<path style="fill:#D46F6C;" d="M410.692,200.879c0,0-3.325,0.111-2.439-0.665c0.887-0.776,7.648-2.106,7.648-2.106
								L410.692,200.879z"/>
							<g>
								<path style="fill:#FFFFFF;" d="M427.276,195.223l-0.241,0.052l0.003,0.098c-0.606-0.076-6.353,0.81-6.591,0.74
									c0,0-11.528,4.545-12.526,6.651c-0.998,2.106,5.764-1.441,6.651-1.884s4.656,2.882,4.656,2.882
									c0.08,0.736,6.813,0.502,6.813,0.502s1.547,0.132,3.777,0.297C428.864,201.482,428.02,198.37,427.276,195.223z"/>
							</g>
							<path style="fill:#FFFFFF;" d="M410.692,200.879c0,0-3.325,0.111-2.439-0.665c0.887-0.776,7.648-2.106,7.648-2.106
								L410.692,200.879z"/>
						</g>
					</g>
				</g>
				<g>
					
						<line style="fill:none;stroke:#0F33AC;stroke-width:0.5189;stroke-miterlimit:10;" x1="410.463" y1="212.506" x2="407.46" y2="217.344"/>
					<path style="fill:#5163B3;" d="M415.175,197.557l6.304,3.914l-6.512,10.488c-0.227,0.365-0.707,0.478-1.072,0.251l-4.981-3.093
						c-0.365-0.227-0.477-0.707-0.251-1.072L415.175,197.557z"/>
					<path style="fill:#5163B3;" d="M412.297,205.534l3.308,2.054l-3.359,5.41c-0.151,0.243-0.471,0.318-0.715,0.167l-2.426-1.507
						c-0.244-0.151-0.318-0.471-0.167-0.715L412.297,205.534z"/>
					<g>
						<path style="fill:#0F33AC;" d="M415,196.658l7.215,4.479c0.275,0.171,0.359,0.532,0.189,0.806l0,0
							c-0.171,0.275-0.532,0.359-0.806,0.189l-7.215-4.479c-0.275-0.171-0.359-0.532-0.189-0.806l0,0
							C414.365,196.572,414.726,196.487,415,196.658z"/>
					</g>
					<g>
						<path style="fill:#0F33AC;" d="M418.422,194.166l4.509,2.8c0.172,0.107,0.225,0.332,0.118,0.504v0
							c-0.107,0.172-0.332,0.225-0.504,0.118l-4.509-2.8c-0.172-0.107-0.225-0.332-0.118-0.504v0
							C418.025,194.112,418.25,194.059,418.422,194.166z"/>
					</g>
					
						<line style="fill:none;stroke:#0F33AC;stroke-width:2.0756;stroke-miterlimit:10;" x1="420.749" y1="195.94" x2="415.553" y2="204.308"/>
					<g>
						<path style="fill:none;stroke:#FFFFFF;stroke-width:0.5189;stroke-linecap:round;stroke-miterlimit:10;" d="M414.987,210.944
							c-0.333-0.173-0.852-0.537-1.185-0.71"/>
						<path style="fill:none;stroke:#FFFFFF;stroke-width:0.5189;stroke-linecap:round;stroke-miterlimit:10;" d="M415.513,209.944
							c-0.321-0.165-0.877-0.51-1.198-0.676"/>
						<g>
							<path style="fill:#FFFFFF;" d="M411.847,212.755c-0.083-0.262-0.032-0.448,0.051-0.616c0.051-0.079,0.103-0.156,0.19-0.215
								c0.083-0.061,0.172-0.117,0.312-0.146c0.048,0.135,0.045,0.241,0.035,0.342c-0.005,0.105-0.045,0.189-0.086,0.274
								C412.248,212.552,412.115,212.692,411.847,212.755z"/>
						</g>
						<path style="fill:none;stroke:#FFFFFF;stroke-width:0.5189;stroke-linecap:round;stroke-miterlimit:10;" d="M416.169,209.041
							c-0.257-0.159-0.832-0.525-1.089-0.684"/>
						<path style="fill:none;stroke:#FFFFFF;stroke-width:0.5189;stroke-linecap:round;stroke-miterlimit:10;" d="M416.738,208.011
							c-0.582-0.351-0.973-0.579-1.12-0.668"/>
						<g>
							<path style="fill:#FFFFFF;" d="M421.877,201.566c-0.271,0.069-0.461,0.007-0.632-0.087c-0.079-0.056-0.158-0.113-0.216-0.204
								c-0.06-0.087-0.117-0.18-0.142-0.323c0.139-0.04,0.248-0.032,0.353-0.016c0.107,0.011,0.193,0.057,0.279,0.103
								C421.678,201.15,421.818,201.292,421.877,201.566z"/>
						</g>
						<g>
							<path style="fill:#FFFFFF;" d="M419.773,200.21c-0.531-0.109-0.987-0.353-1.422-0.628c-0.211-0.146-0.422-0.294-0.61-0.474
								c-0.19-0.176-0.376-0.358-0.526-0.586c0.276,0.053,0.517,0.152,0.752,0.257c0.239,0.101,0.454,0.235,0.669,0.37
								C419.055,199.438,419.452,199.756,419.773,200.21z"/>
						</g>
					</g>
				</g>
			</g>
		</g>
	</g>
	<g>
		<g>
			<path style="fill:#FFBDBD;" d="M490.613,223.935c0,0-96.136,49.064-108.084,41.147c-16.194-10.73-41.469-66.138-41.469-66.138
				l34.826-21.898l31.591,39.905c0,0,53.736-10.909,72.494-13.634c0,0,9.632-15.297,14.299-15.297c2.66,0-3.991,11.971-3.991,11.971
				s11.306-8.646,17.625-14.964c6.318-6.318-2.328,12.969-8.646,16.294s12.969-12.969,14.964-11.971
				c1.995,0.998-6.983,12.637-9.976,14.964c-2.993,2.328,13.967-12.304,13.634-8.314c-0.087,1.048-9.644,14.632-13.634,14.632
				c-3.991,0,12.304-9.311,13.302-7.316C518.546,205.313,490.613,223.935,490.613,223.935z"/>
			<path style="fill:#EC8492;" d="M394.561,255.243c-4.204-9.417-6.864-19.71-7.728-30.317c-0.838-10.283,0.991-20.496,2.693-30.65
				l-13.64-17.23l-34.826,21.898c0,0,25.275,55.408,41.469,66.138c2.445,1.62,8.418,0.852,16.368-1.392
				C397.322,260.953,395.858,258.147,394.561,255.243z"/>
			<g>
				<path style="fill:#B46DD6;" d="M403.178,208.79c-3.959-13.411-5.117-21.371-22.479-49.967
					c-2.092-3.445-11.109-13.845-17.709-15.421c-9.446-2.255-27.352,11.846-23.688,32.921c-1.716,4.103,4.514,48.298,6.025,57.282
					L403.178,208.79z"/>
			</g>
		</g>
		<g>
			<g>
				<g>
					<g>
						<path style="fill:#FFBDBD;" d="M425.105,414.338c0.296,28.423,0.592,39.97,0.592,39.97s57.83,1.057,60.1-1.693
							c2.269-2.75-28.173-16.864-28.173-16.864s-0.543-7.201-0.543-21.412H425.105z"/>
					</g>
					<g>
						<path style="fill:#EC8492;" d="M453.28,414.338H425.77c0.153,14.67,0.306,24.834,0.418,31.246
							C435.675,435.557,444.811,425.227,453.28,414.338z"/>
					</g>
					<g>
						
							<path style="fill:#0D1029;stroke:#0D1029;stroke-width:1.2269;stroke-linecap:round;stroke-linejoin:round;stroke-miterlimit:10;" d="
							M425.213,433.325c0.463,0.03,7.294,14.172,7.294,14.172s7.698-2.665,27.524-11.775c0,0,35.009,9.167,30.322,19.87l-69.689-0.1
							L425.213,433.325z"/>
					</g>
				</g>
				<g>
					
						<line style="fill:none;stroke:#FFFFFF;stroke-width:1.3355;stroke-miterlimit:10;" x1="465.371" y1="437.135" x2="452.048" y2="446.905"/>
					
						<line style="fill:none;stroke:#FFFFFF;stroke-width:1.3355;stroke-miterlimit:10;" x1="474.845" y1="438.911" x2="461.522" y2="448.682"/>
				</g>
				<g>
					<path style="fill:#E6E9FC;" d="M421.848,422.035c-1.776-26.054-4.567-100.737-3.553-103.625
						c1.014-2.888-120.317-22.879-120.275-49.064c0.043-26.185,48.269-10.495,48.269-10.495s79.184-0.704,109.738,13.302
						c17.639,8.085,1.941,148.698,1.941,148.698L421.848,422.035z"/>
					<g>
						<path style="fill:none;stroke:#25334C;stroke-width:0.6677;stroke-miterlimit:10;" d="M352.568,241.432
							c0,0-18.948,30.791,7.106,36.713c26.054,5.921,74.018,2.961,79.347,12.435c5.576,9.914-0.592,114.875-0.592,114.875"/>
						
							<line style="fill:none;stroke:#25334C;stroke-width:0.6677;stroke-miterlimit:10;" x1="420.072" y1="405.456" x2="459.594" y2="406.048"/>
					</g>
				</g>
				<g>
					<g>
						<path style="fill:#FFBDBD;" d="M387.504,414.338c0.296,28.423,0.592,39.97,0.592,39.97s57.83,1.057,60.1-1.693
							c2.269-2.75-28.173-16.864-28.173-16.864s-0.543-7.201-0.543-21.412H387.504z"/>
					</g>
					<g>
						<path style="fill:#EC8492;" d="M417.182,414.338h-29.678c0.134,12.904,0.269,22.319,0.375,28.764
							C397.715,432.914,407.443,423.267,417.182,414.338z"/>
					</g>
					<g>
						
							<path style="fill:#1A1F4F;stroke:#1A1F4F;stroke-width:1.2269;stroke-linecap:round;stroke-linejoin:round;stroke-miterlimit:10;" d="
							M386.616,433.286c0.463,0.03,8.29,14.211,8.29,14.211s7.698-2.665,27.524-11.775c0,0,35.009,9.167,30.322,19.87l-69.689-0.1
							L386.616,433.286z"/>
					</g>
				</g>
				<g>
					<g>
						<path style="fill:#FFFFFF;" d="M422.441,424.404c0,0,12.587-144.917,2.403-151.854
							c-24.017-16.359-119.658-26.544-119.658-26.544s-18.705,24.128-14.063,57.76c2.849,20.64,56.968,21.17,79.802,19.381
							c5.038-0.395,9.32,3.599,9.273,8.646c-0.199,21.63,5.879,70.687,5.531,92.61H422.441z"/>
					</g>
				</g>
				<g>
					<g>
						<path style="fill:#E6E9FC;" d="M314.506,308.177c-10.604-9.92-18.286-25.655-19.776-41.309
							c-3.286,9.779-5.601,22.458-3.608,36.898c1.808,13.1,24.268,18.094,46.275,19.54
							C329.076,319.416,321.301,314.534,314.506,308.177z"/>
					</g>
				</g>
				<g>
					<path style="fill:none;stroke:#25334C;stroke-width:0.6677;stroke-miterlimit:10;" d="M314.671,249.722
						c0,0-17.764,34.344,8.29,40.266c26.054,5.921,69.28-2.961,79.347,8.29c8.13,9.087,0.592,107.178,0.592,107.178"/>
					
						<line style="fill:none;stroke:#25334C;stroke-width:0.6677;stroke-miterlimit:10;" x1="384.544" y1="405.456" x2="424.066" y2="406.048"/>
				</g>
				<g>
					
						<line style="fill:none;stroke:#FFFFFF;stroke-width:1.3355;stroke-miterlimit:10;" x1="427.77" y1="437.135" x2="414.447" y2="446.905"/>
					
						<line style="fill:none;stroke:#FFFFFF;stroke-width:1.3355;stroke-miterlimit:10;" x1="437.244" y1="438.911" x2="423.921" y2="448.682"/>
				</g>
			</g>
		</g>
		<g>
			<g>
				<path style="fill:#B46DD6;" d="M291.503,280.438c0,0-3.426-81.613,1.472-108.697c4.898-27.085,33.191-34.535,33.191-34.535
					l10.009-4.282l20.927,6.514l7.37,4.969c6.14,4.311,9.508,16.394,10.777,23.434l3.374,91.209
					C378.622,259.049,372.183,270.595,291.503,280.438z"/>
				<path style="fill:#9455B5;" d="M349.955,215.458c-6.307-12.344-12.173-24.934-17.465-37.747
					c-5.099-12.345-8.922-25.164-13.739-37.616c-8.741,4.188-22.497,13.513-25.776,31.645
					c-4.898,27.085-1.472,108.697-1.472,108.697c59.972-7.316,78.918-15.572,84.696-19.33
					C366.74,246.317,357.95,231.105,349.955,215.458z"/>
			</g>
			<path style="fill:none;stroke:#FFFFFF;stroke-width:0.6571;stroke-miterlimit:10;" d="M328.333,136.477
				c0.333,0.998,22.677,24.217,30.261,19.287c6.651-4.323,2.66-16.294,2.66-16.294"/>
			<g>
				<g>
					<path style="fill:#FFBDBD;" d="M359.294,144.534l0.181-2.846l1.283-10.717l-0.552-0.751l0.121-1.9l-14.219-17.252
						c0,0-1.222,0.215-1.647,0.8c-0.425,0.586-3.159-1.663-3.159-1.663l-10.641,24.608l9.51,8.259
						c3.922,3.79,11.695,10.374,15.588,10.129c2.366-0.149,3.024-5.725,3.024-5.725l0.329-2.747L359.294,144.534z"/>
					<path style="fill:#1A1F4F;" d="M345.788,110.171l15.407,18.604l-0.451,2.445c0,0-5.603,18.566-12.639-11.457"/>
				</g>
				<g>
					<path style="fill:#1A1F4F;" d="M342.466,112.035c-2.961-1.365-3.427-4.555-3.492-7.815c-0.065-3.26,0.941-8.854,2.328-11.805
						c2.31-4.914,6.464-14.807,8.812-17.625c1.663-1.995,5.321-7.482,15.377-2.149c0.523-1.699,2.309-2.914,4.081-2.777
						c1.772,0.138,3.349,1.614,3.604,3.373c0.842-2.493,3.573-4.121,6.195-3.915c2.623,0.207,4.976,2.088,5.996,4.513
						c1.02,2.425,0.774,5.288-0.409,7.638c1.856,1.069,2.869,3.423,2.369,5.506c-0.5,2.083-2.47,3.721-4.61,3.831
						c0.38,0.96,0.146,2.134-0.573,2.875c-0.719,0.741-1.885,1.01-2.856,0.66L342.466,112.035z"/>
				</g>
				<path style="fill:#FFBDBD;" d="M347.558,105.964c-0.353,0.429-5.07-5.338-7.603-0.723c-3.44,6.267,4.385,7.855,4.668,8.942
					c0.573,2.203-0.769,3.288,4.035,7.483c2.928,2.556,10.619,11.718,15.943,11.629c2.19-0.037,5.255-2.95,15.685-40.251
					c0,0-2.624,2.668-5.336,2.688c-2.712,0.02-5.679-4.369-8.106-6.189C356.247,81.602,349.636,103.439,347.558,105.964z"/>
				<g>
					<path style="fill:#10242E;" d="M370.156,110.777c-0.197,0.604-0.612,1.011-0.926,0.909c-0.315-0.102-0.41-0.676-0.213-1.28
						c0.197-0.604,0.612-1.011,0.927-0.909C370.257,109.599,370.353,110.172,370.156,110.777z"/>
					<path style="fill:#10242E;" d="M374.445,111.648c-0.212,0.649-0.611,1.102-0.892,1.01c-0.281-0.092-0.338-0.692-0.126-1.342
						c0.212-0.65,0.581-0.953,0.862-0.861C374.57,110.547,374.657,110.998,374.445,111.648z"/>
					<path style="fill:#EC8492;" d="M340.973,105.723c0,0,4.118-1.296,4.268,2.586"/>
					<path style="fill:#EC8492;" d="M371.99,109.801l-2.892,7.083l3.517,1.1c0.224,0.047,1.09-0.147,1.051-0.373L371.99,109.801z"/>
					<path style="fill:#FFFFFF;" d="M364.871,118.055l6.274,1.467c0,0-1.084,3.157-2.955,2.421
						C366.318,121.207,364.871,118.055,364.871,118.055z"/>
					<path style="fill:#10242E;" d="M367.075,104.652c2.54-0.988,4.771-0.355,4.771-0.355c-0.168-1.318-1.543-2.231-3.072-2.037
						c-0.573,0.072-1.37,0.454-1.763,1.112C366.846,103.647,366.556,104.808,367.075,104.652z"/>
					<path style="fill:#10242E;" d="M374.358,105.21c2.719,0.197,4.462,1.726,4.462,1.726c0.416-1.263-0.434-2.676-1.899-3.158
						c-0.549-0.18-1.433-0.178-2.071,0.248C374.584,104.204,373.823,105.128,374.358,105.21z"/>
				</g>
			</g>
			<g>
				<path style="fill:#FFBDBD;" d="M286.586,198.198c0,0-21.368,58.051-10.751,74.325c7.833,12.006,116.655,0.744,116.655,0.744
					s15.111,0.724,35.605,3.875c0,0-3.68-10.787-22.652-15.908c-18.303-4.941-83.042-24.37-83.042-24.37l4.84-44.949
					L286.586,198.198z"/>
				<path style="fill:#EC8492;" d="M287.754,205.275c0,0-9.588,57.545-0.019,59.138c29.039,4.833,63.401,12.083,63.401,12.083
					s-76.469,5.316-75.985-5.8c-7.898-23.198,5.808-61.381,5.808-61.381L287.754,205.275z"/>
				<g>
					<path style="fill:#B46DD6;" d="M307.05,146.786c2.984-2.714,13.636-9.28,17.464-8.01c9.22,3.06,24.205,20.929,14.716,40.107
						l-14.894,50.731l-52.635-7.165C271.702,222.449,282.286,169.313,307.05,146.786z"/>
				</g>
			</g>
			<g>
				
					<line style="fill:none;stroke:#FFFFFF;stroke-width:0.6571;stroke-miterlimit:10;" x1="274.963" y1="212.246" x2="325.111" y2="221.563"/>
			</g>
		</g>
	</g>
	<g>
		<g>
			
				<ellipse transform="matrix(0.7071 -0.7071 0.7071 0.7071 -47.3118 520.0015)" style="fill:#E6E9FC;" cx="604.041" cy="317.111" rx="61.57" ry="61.57"/>
			<g>
				<g>
					<path style="fill:#9455B5;" d="M630.208,230.578l-0.002,0.139l14.223,0.217l0.002-0.139c0.056-3.68-2.881-6.709-6.562-6.765
						l-0.896-0.014C633.293,223.96,630.264,226.898,630.208,230.578z M635.919,227.402c0.012-0.801,0.671-1.44,1.472-1.428
						c0.801,0.012,1.44,0.671,1.427,1.472c-0.012,0.801-0.671,1.44-1.472,1.428C636.546,228.862,635.907,228.203,635.919,227.402z"
						/>
					<path style="fill:#25334C;" d="M593.689,355.824l82.226,1.257c2.225,0.034,4.057-1.742,4.091-3.968l1.778-116.35
						c0.034-2.225-1.742-4.057-3.968-4.091l-82.226-1.257c-2.225-0.034-4.057,1.742-4.091,3.967l-1.778,116.35
						C589.688,353.958,591.464,355.79,593.689,355.824z"/>
					
						<rect x="594.93" y="237.238" transform="matrix(-0.9999 -0.0153 0.0153 -0.9999 1266.719 595.6428)" style="fill:#978FEC;" width="81.409" height="111.488"/>
					
						<rect x="588.967" y="300.872" transform="matrix(-0.9999 -0.0153 0.0153 -0.9999 1181.8589 619.4325)" style="fill:#B46DD6;" width="8.658" height="8.658"/>
					
						<rect x="589.322" y="270.907" transform="matrix(-0.9999 -0.0153 0.0153 -0.9999 1186.7395 559.535)" style="fill:#B46DD6;" width="12.369" height="8.658"/>
					
						<rect x="588.988" y="292.76" transform="matrix(-0.9999 -0.0153 0.0153 -0.9999 1186.1478 603.2409)" style="fill:#FFFFFF;" width="12.781" height="8.658"/>
					<g>
						
							<rect x="593.781" y="241.218" transform="matrix(-0.9939 0.1104 -0.1104 -0.9939 1245.5326 454.4026)" style="fill:#B2AEEE;" width="32.803" height="40.95"/>
						<polygon style="opacity:0.43;fill:#47009D;" points="592.473,248.884 592.597,250.489 600.091,248.038 						"/>
					</g>
					<path style="fill:#FFFFFF;" d="M605.325,347.033l70.226,1.073l1.696-111l-78.749-1.203l-1.566,102.477
						C600.209,341.759,602.047,343.654,605.325,347.033z"/>
					<path style="fill:none;stroke:#A3C3FC;stroke-width:0.3224;stroke-miterlimit:10;" d="M592.899,253.367l7.204-0.8
						c1.239-0.138,2.131-1.253,1.993-2.492l0.001,0.011c-0.138-1.239-1.253-2.131-2.492-1.994l-8.939,0.993
						c-1.239,0.138-2.131,1.253-1.994,2.492l0.07,0.629c0.138,1.239,1.269,2.273,2.508,2.136l1.664-0.185"/>
					<path style="fill:#D86A6A;" d="M620.363,239.329l32.45,0.496c1.797,0.027,3.277-1.407,3.304-3.204l0.052-3.386
						c0.027-1.797-1.407-3.277-3.205-3.304l-32.45-0.496c-1.797-0.027-3.276,1.407-3.304,3.204l-0.052,3.386
						C617.131,237.822,618.566,239.302,620.363,239.329z"/>
					<g>
						<polygon style="fill:#BCCDF1;" points="605.789,347.04 605.919,338.486 597.396,338.355 604.135,346.946 						"/>
						<polygon style="fill:#FFFFFF;" points="604.088,347.014 604.219,338.46 595.696,338.329 						"/>
					</g>
					
						<rect x="624.317" y="235.969" transform="matrix(-0.9999 -0.0153 0.0153 -0.9999 1269.4277 489.47)" style="fill:#9455B5;" width="24.532" height="7.834"/>
					<path style="fill:#B46DD6;" d="M617.109,239.279l38.958,0.595l0.102-6.64c0.027-1.797-1.407-3.277-3.205-3.304l-32.45-0.496
						c-1.797-0.027-3.276,1.407-3.304,3.204L617.109,239.279z"/>
				</g>
				<g>
					<g>
						<path style="fill:#A3C3FC;" d="M606.583,248.603c0.034-2.22,1.861-3.992,4.081-3.958c2.22,0.034,3.992,1.861,3.958,4.081
							c-0.034,2.22-1.861,3.992-4.081,3.958C608.321,252.65,606.549,250.822,606.583,248.603z"/>
						<g>
							<path style="fill:#A3C3FC;" d="M628.186,259.912l10.33,0.158c0.512,0.008,0.934-0.401,0.942-0.913l0,0
								c0.008-0.512-0.401-0.934-0.914-0.942l-10.33-0.158c-0.512-0.008-0.934,0.401-0.942,0.913l0,0
								C627.264,259.482,627.673,259.904,628.186,259.912z"/>
							<path style="fill:#A3C3FC;" d="M606.518,259.581l17.465,0.267c0.512,0.008,0.934-0.401,0.942-0.914l0,0
								c0.008-0.512-0.401-0.934-0.914-0.942l-17.465-0.267c-0.512-0.008-0.934,0.401-0.942,0.914l0,0
								C605.597,259.151,606.006,259.573,606.518,259.581z"/>
							
								<line style="fill:none;stroke:#A3C3FC;stroke-width:0.3224;stroke-miterlimit:10;" x1="638.251" y1="267.488" x2="606.766" y2="267.007"/>
							
								<line style="fill:none;stroke:#A3C3FC;stroke-width:0.3224;stroke-miterlimit:10;" x1="638.166" y1="273.053" x2="606.68" y2="272.572"/>
						</g>
					</g>
					<g>
						
							<line style="fill:none;stroke:#25334C;stroke-width:0.155;stroke-miterlimit:10;" x1="671.118" y1="285.618" x2="604.023" y2="284.593"/>
						<path style="fill:#B46DD6;" d="M654.869,295.833l12.502,0.191c0.302,0.005,0.55-0.236,0.555-0.538l0.001-0.041
							c0.005-0.302-0.236-0.55-0.538-0.555l-12.502-0.191c-0.302-0.005-0.55,0.236-0.555,0.538l-0.001,0.041
							C654.327,295.58,654.568,295.829,654.869,295.833z"/>
						<path style="fill:#A3C3FC;" d="M630.728,295.464l7.843,0.12c0.242,0.004,0.44-0.189,0.444-0.431l0.004-0.259
							c0.004-0.242-0.189-0.44-0.431-0.444l-7.843-0.12c-0.242-0.004-0.44,0.189-0.444,0.431l-0.004,0.259
							C630.293,295.262,630.486,295.461,630.728,295.464z"/>
						<path style="fill:#A3C3FC;" d="M630.551,307.008l7.843,0.12c0.242,0.004,0.44-0.189,0.444-0.431l0.004-0.259
							c0.004-0.242-0.189-0.44-0.431-0.444l-7.843-0.12c-0.242-0.004-0.44,0.189-0.444,0.431l-0.004,0.259
							C630.117,306.805,630.31,307.004,630.551,307.008z"/>
						<path style="fill:#A3C3FC;" d="M630.485,311.336l7.843,0.12c0.242,0.004,0.44-0.189,0.444-0.431l0.004-0.259
							c0.004-0.242-0.189-0.44-0.431-0.444l-7.842-0.12c-0.242-0.004-0.44,0.189-0.444,0.431l-0.004,0.259
							C630.051,311.134,630.244,311.333,630.485,311.336z"/>
						<path style="fill:#B46DD6;" d="M654.784,301.399l12.502,0.191c0.302,0.005,0.55-0.236,0.555-0.538l0.001-0.041
							c0.005-0.302-0.236-0.55-0.538-0.555l-12.502-0.191c-0.302-0.005-0.55,0.236-0.555,0.538l-0.001,0.041
							C654.242,301.146,654.482,301.394,654.784,301.399z"/>
						<path style="fill:#B46DD6;" d="M654.699,306.964l12.502,0.191c0.302,0.005,0.55-0.236,0.555-0.538l0.001-0.041
							c0.005-0.302-0.236-0.55-0.538-0.555l-12.502-0.191c-0.302-0.005-0.55,0.236-0.555,0.538l-0.001,0.041
							C654.156,306.711,654.397,306.96,654.699,306.964z"/>
						<path style="fill:#B46DD6;" d="M654.614,312.53l12.502,0.191c0.302,0.005,0.55-0.236,0.555-0.538l0.001-0.041
							c0.005-0.302-0.236-0.55-0.538-0.555l-12.502-0.191c-0.302-0.005-0.55,0.236-0.555,0.538l-0.001,0.041
							C654.071,312.277,654.312,312.525,654.614,312.53z"/>
					</g>
					<g>
						<g>
							
								<ellipse transform="matrix(0.3845 -0.9231 0.9231 0.3845 100.912 752.7043)" style="fill:none;stroke:#A3C3FC;stroke-width:2.1242;stroke-miterlimit:10;" cx="614.909" cy="300.678" rx="7.77" ry="7.77"/>
							<path style="fill:none;stroke:#B46DD6;stroke-width:2.1242;stroke-miterlimit:10;" d="M622.68,300.678
								c0-4.291-3.479-7.77-7.77-7.77s-7.77,3.479-7.77,7.77"/>
						</g>
						<g>
							<path style="fill:none;stroke:#A3C3FC;stroke-width:2.1242;stroke-miterlimit:10;" d="M620.404,328.373
								c3.035-3.034,3.035-7.954,0-10.989c-3.034-3.034-7.954-3.034-10.989,0c-3.034,3.034-3.034,7.954,0,10.989
								C612.45,331.408,617.369,331.408,620.404,328.373z"/>
							<path style="fill:none;stroke:#B46DD6;stroke-width:2.1242;stroke-miterlimit:10;" d="M620.404,328.373
								c3.035-3.034,3.035-7.954,0-10.989"/>
						</g>
					</g>
				</g>
				<path style="fill:#A3C3FC;" d="M647.463,263.985c0.081-5.315,4.456-9.558,9.771-9.477c5.315,0.081,9.558,4.456,9.477,9.771
					c-0.081,5.315-4.456,9.558-9.771,9.477C651.625,273.675,647.382,269.3,647.463,263.985z"/>
			</g>
		</g>
		<g>
			<g>
				<g>
					<g>
						<g>
							<g>
								<polygon style="fill:#FFBDBD;" points="545.325,444.09 544.422,455.196 526.814,455.951 536.685,450.385 538.674,443.425 
																	"/>
								<polygon style="fill:#EC8492;" points="537.233,442.538 544.422,455.196 545.879,443.536 								"/>
								<polygon style="fill:#B46DD6;" points="536.679,449.411 525.373,456.284 546.766,456.505 545.325,449.522 541.113,453.623 
																	"/>
								<g>
									
										<line style="fill:none;stroke:#FFFFFF;stroke-width:0.3042;stroke-miterlimit:10;" x1="534.561" y1="450.682" x2="536.533" y2="451.946"/>
									
										<line style="fill:none;stroke:#FFFFFF;stroke-width:0.3042;stroke-miterlimit:10;" x1="532.802" y1="451.51" x2="534.773" y2="452.774"/>
								</g>
							</g>
						</g>
						<g>
							<g>
								<polygon style="fill:#FFBDBD;" points="564.493,446.222 563.016,455.648 580.796,457.059 570.728,450.971 571.289,445.847 
																	"/>
								<polygon style="fill:#EC8492;" points="571.289,445.847 564.493,446.222 563.016,455.648 								"/>
								<polygon style="fill:#B46DD6;" points="571.485,450.409 581.572,457.059 562.396,456.838 563.657,450.813 566.608,454.843 
																	"/>
								<g>
									
										<line style="fill:none;stroke:#FFFFFF;stroke-width:0.3042;stroke-miterlimit:10;" x1="573.399" y1="451.608" x2="571.371" y2="452.779"/>
									
										<line style="fill:none;stroke:#FFFFFF;stroke-width:0.3042;stroke-miterlimit:10;" x1="575.117" y1="452.518" x2="573.089" y2="453.688"/>
								</g>
							</g>
						</g>
						<g>
							<path style="fill:#25334C;" d="M567.716,341.446l-16.89,0.104c0,0-2.7,1.98-5.4,12.24
								c-3.29,12.502-8.218,45.034-9.838,91.926l12.287,0.369l10.063-71.569c0.301-1.043,1.845-0.79,1.797,0.294l3.301,72.078
								l12.107-0.471c0,0,7.023-78.567,2.357-90.324C572.834,344.337,567.716,341.446,567.716,341.446z"/>
							<g>
								
									<line style="fill:none;stroke:#FFFFFF;stroke-width:0.3042;stroke-miterlimit:10;" x1="573.319" y1="360.899" x2="570.868" y2="446.705"/>
							</g>
							<g>
								
									<line style="fill:none;stroke:#FFFFFF;stroke-width:0.3042;stroke-miterlimit:10;" x1="548.551" y1="360.359" x2="538.648" y2="445.805"/>
							</g>
						</g>
					</g>
				</g>
				<g>
					<polygon style="fill:#7692E0;" points="548.872,445.864 549.648,439.546 533.908,434.557 534.462,446.307 					"/>
					<path style="fill:#7692E0;" d="M563.036,446.889c0.247-0.249,0.579-6.789,0.579-6.789l13.856-4.212l-1.441,10.863
						L563.036,446.889z"/>
				</g>
				<g>
					<g>
						<path style="fill:#FFBDBD;" d="M523.993,308.665c0,0,9.017,26.629,13.513,25.325l-0.068-13.184
							c-0.166,0.262-7.677-14.655-7.677-14.655s-2.263-3.744-3.279-4.332c0,0-4.101-3.326-3.603-1.829
							c0.499,1.496,1.995,3.159,1.995,3.159l-0.942,5.154"/>
						
							<line style="fill:none;stroke:#B46DD6;stroke-width:1.7589;stroke-linecap:round;stroke-miterlimit:10;" x1="526.875" y1="305.955" x2="529.134" y2="296.427"/>
						<path style="fill:#FFBDBD;" d="M529.578,306.032c0,0-0.027-3.807-0.561-3.879c-0.534-0.072-3.056,0.118-3.299,0.984
							c-0.243,0.866,1.895,0.821,1.895,0.821s-1.003,1.776-0.141,2.353C528.333,306.887,529.578,306.032,529.578,306.032z"/>
					</g>
					<path style="fill:#FFFFFF;" d="M559.284,303.176c0,0-7.613,4.605-10.222,7.204c-2.609,2.6-11.878,9.649-11.878,9.649
						l-6.327-12.309l-5.955,5.392c0,0,7.588,21.605,11.861,21.738C541.035,334.984,568.571,315.828,559.284,303.176z"/>
				</g>
				<g>
					<path style="fill:#1E2F4D;" d="M549.316,315.286c0,0-5.542-3.88-1.33-5.764c4.212-1.884,0.998-1.884-1.552-3.104
						c-2.549-1.219,0.887-1.773,3.214-2.66s0.333-1.995-1.663-3.215c-1.995-1.219-0.887-2.66-0.887-2.66l0.592-5.712
						c-0.55-1.124,1.068-4.408,1.435-5.607c1.114-3.642,7.022-5.589,11.538-3.685c0,0,9.824,3.698,8.272,7.246
						c-1.867,4.266-0.111,4.766,2.549,5.099c2.66,0.332,4.656,2.328,1.884,4.323c-2.43,1.75-4.101,2.439-1.884,3.658
						c2.217,1.219,5.431,0.443,5.542,2.771c0.111,2.328-5.099,2.439-4.101,4.101c0.998,1.663,4.656-0.111,6.207,2.549
						c1.552,2.66,1.774,3.88,1.774,3.88L549.316,315.286"/>
					<path style="fill:#FFBDBD;" d="M560.295,292.196c0.049,0.158,0.217,0.245,0.374,0.19c0.653-0.228,2.114-0.886,2.915,0.751
						c0.81,1.655-0.503,3.194-1.476,3.589c-0.281,0.114-0.921,0.399-1.042,0.677c-0.373,0.854-0.166,2.367-0.018,4.291
						c0.328,4.25,4.005,4.978,4.005,4.978s-9.482,8.087-11.118,3.018c0.643-1.081,0.255-9.227-0.967-8.786
						c-1.604,0.579-4.773-0.14-5.095-7.414c-0.298-6.739,4.34-7.846,5.551-8.036C554.444,285.294,557.859,284.355,560.295,292.196z"
						/>
					<path style="fill:#1E2F4D;" d="M550.057,285.938c0,0,9.123,6.137,10.452,6.449
						C560.509,292.388,561.307,280.797,550.057,285.938z"/>
					<g>
						<path style="fill:#EC8492;" d="M563.01,293.889c0,0-1.773-1.815-2.078,1.538"/>
						<path style="fill:#FF9C9C;" d="M554.616,294.156c-0.854,0.272-1.326,1.186-1.054,2.04c0.272,0.854,1.186,1.326,2.04,1.054
							c0.854-0.272,1.326-1.186,1.054-2.04C556.384,294.356,555.471,293.884,554.616,294.156z"/>
						<path style="fill:#FF9C9C;" d="M548.415,296.929c0.659-0.369,0.991-1.162,0.752-1.909c-0.184-0.576-0.659-0.979-1.211-1.096
							C547.957,293.923,547.885,295.848,548.415,296.929z"/>
						<path style="fill:#EC8492;" d="M550.81,293.655l0.204,1.798l-0.937-0.08c-0.173-0.015-0.267-0.209-0.171-0.354L550.81,293.655
							z"/>
						<path d="M553.432,291.718c0.3,0.214-0.157-0.736-0.569-0.849c-0.412-0.113-0.825,0.084-0.923,0.44
							C551.94,291.309,552.71,291.204,553.432,291.718z"/>
						<path d="M548.443,291.565c-0.304,0.21,0.167-0.734,0.581-0.841c0.414-0.107,0.824,0.095,0.917,0.452
							C549.94,291.177,549.172,291.061,548.443,291.565z"/>
						<path d="M552.311,293.907c-0.017,0.319-0.156,0.57-0.31,0.562c-0.154-0.008-0.266-0.273-0.249-0.592
							c0.017-0.319,0.156-0.57,0.31-0.562C552.216,293.324,552.328,293.589,552.311,293.907z"/>
						<path d="M549.527,293.74c-0.016,0.304-0.148,0.545-0.296,0.537c-0.148-0.008-0.254-0.261-0.238-0.565
							c0.016-0.304,0.149-0.545,0.296-0.537C549.437,293.183,549.544,293.436,549.527,293.74z"/>
						<path d="M553.331,300.891c0,0,2.26-0.77,3.7-1.371C558.472,298.918,554.854,304.775,553.331,300.891z"/>
					</g>
					<g>
						<path style="fill:none;stroke:#1E334D;stroke-width:0.3347;stroke-miterlimit:10;" d="M551.117,292.881
							c0.044,1.785,0.732,3,1.907,2.971c1.175-0.029,2.544-2.114,2.499-3.899c0.111-0.499-0.361,0.74-1.441,0.277
							C553.694,292.064,552.222,291.496,551.117,292.881z"/>
						<path style="fill:none;stroke:#1E334D;stroke-width:0.3347;stroke-miterlimit:10;" d="M546.6,291.897
							c0.04,1.618,0.819,3.684,1.884,3.658c1.065-0.027,1.98-0.987,1.94-2.605c-0.536-1.08-1.318-0.858-2.383-0.831
							C546.976,292.146,546.56,290.279,546.6,291.897z"/>
						
							<line style="fill:none;stroke:#1E334D;stroke-width:0.3347;stroke-miterlimit:10;" x1="551.131" y1="293.311" x2="550.294" y2="293.321"/>
						
							<line style="fill:none;stroke:#1E334D;stroke-width:0.3347;stroke-miterlimit:10;" x1="555.357" y1="293.269" x2="561.898" y2="291.869"/>
					</g>
				</g>
				<path style="fill:#C20600;" d="M561.861,306.179c0,0,1.588-0.438,1.322-0.105c-0.266,0.334-0.833,0.701-1.399,1.069
					L561.861,306.179z"/>
				<g>
					<path style="fill:#A3C3FC;" d="M553.897,305.1c0.172,0.43-7.349,15.027-7.189,19.23c0.161,4.233,2.966,17.818,2.733,18.452
						c0,0,3.251,2.629,21.395-0.006c5.625-4.804,0.933-27.849-0.875-33.113c0,0-6.892-5.909-8.425-6.04
						C561.536,303.623,556.188,311.739,553.897,305.1z"/>
					<path style="fill:#FFFFFF;" d="M563.967,306.055c0,0-5.356,13.789-8.137,16.712c-2.781,2.923,2.288,44.161,2.288,44.161
						l26.874,1.528c0,0-4.354-15.904-11.254-22.971c4.621-24.887-1.013-29.765-1.013-29.765c-0.508-4.417-3.594-8.108-7.85-9.392
						L563.967,306.055z"/>
					<path style="fill:#224382;" d="M562.95,305.841c-4.462,9.913-2.845,8.186-7.346,17.256c0,0-0.677,12.465-0.19,15.85
						c0,0,8.075-16.289,9.801-19.331l-0.775-4.023l3.383-0.543l-1.391-8.567L562.95,305.841z"/>
					<path style="fill:#FFFFFF;" d="M562.209,303.519c0,0-3.768,12.141-7.519,19.699c0,0-1.189,11.108-0.702,14.493
						c0,0,7.901-16.061,9.627-19.102l-0.803-3.494l3.072-0.808l0.889-8.155L562.209,303.519z"/>
					<path style="fill:#25334C;" d="M552.299,340.382l21.625-14.755l-0.325,3.727c0,0-2.827,12.716-5.019,16.402
						c-2.305,3.876-4.93,8.314-10.795,1.885L552.299,340.382z"/>
				</g>
				<path style="fill:#FFFFFF;" d="M553.602,305.17c0,0-2.973,12.679-2.41,18.366c0.094,0.951,2.335,43.435,2.335,43.435
					l-16.066-0.636l11.43-56.565L553.602,305.17z"/>
				<path style="fill:#FFFFFF;" d="M553.745,304.401c-0.16,0.104-2.876,2.13-2.876,2.13l-0.717,2.579l1.3,1.652l-1.863,1.245
					c0,0-2.223,4.831-0.087,16.102c2.135,11.271,1.693,8.467,1.693,8.467L553.745,304.401z"/>
				<path style="fill:#224382;" d="M553.667,306.511c-0.207-0.155-2.924,1.871-2.924,1.871l-0.717,2.578l1.3,1.652l-2.792,0.493
					c0,0-1.293,5.583,0.842,16.854c2.135,11.271,1.741,8.727,1.741,8.727L553.667,306.511z"/>
				<path style="fill:#FFFFFF;" d="M554.237,304.768c-0.16,0.104-3.369,1.763-3.369,1.763l-0.717,2.579l1.3,1.652l-2.764,2.164
					c0,0-0.136,5.633,2,16.904c2.135,11.271,0.549,7.571,0.549,7.571L554.237,304.768z"/>
				<g>
					<g>
						<g>
							<path style="fill:#35445C;" d="M547.612,327.734c-0.063-0.434-0.128-0.877-0.329-1.266c-0.201-0.389-0.568-0.721-1.005-0.761
								c-0.576-0.052-1.077,0.406-1.374,0.902c-0.139,0.232-0.251,0.48-0.335,0.738c-0.022,0.069-0.036,0.159,0.024,0.2
								c0.035,0.024,0.082,0.019,0.124,0.014c0.891-0.104,1.779,0.346,2.668,0.232"/>
						</g>
						<path style="fill:#ADBEDE;" d="M544.434,328.207l3.2,0.038c0.208,0.003,0.378-0.164,0.381-0.372l0,0
							c0.003-0.208-0.164-0.379-0.372-0.381l-3.2-0.038c-0.208-0.003-0.378,0.164-0.381,0.372l0,0
							C544.059,328.034,544.226,328.204,544.434,328.207z"/>
					</g>
				</g>
				<g>
					<g>
						<path style="fill:#25334C;" d="M545.922,338.289l-7.213-23.609c-0.4-1.309-1.329-2.373-2.547-2.916l-15.267-6.812
							c-0.452-0.202-0.923,0.243-0.771,0.727l7.297,23.132c0.393,1.245,1.267,2.266,2.414,2.819l15.3,7.374
							C545.586,339.221,546.072,338.78,545.922,338.289z"/>
						<path style="fill:#E6E9FC;" d="M545.302,338.65l-7.213-23.609c-0.4-1.309-1.329-2.373-2.547-2.916l-15.267-6.812
							c-0.452-0.202-0.923,0.243-0.77,0.727l7.297,23.132c0.393,1.245,1.267,2.266,2.414,2.819l15.3,7.374
							C544.966,339.583,545.452,339.141,545.302,338.65z"/>
					</g>
					<g>
						<path style="fill:#B46DD6;" d="M523.993,308.665c0.05-0.084,8.242,3.713,8.242,3.713l-0.806-2.868l-8.445-3.716
							L523.993,308.665z"/>
						<path style="fill:#9455B5;" d="M525.483,307.674c0.05-0.084,4.349,1.817,4.349,1.817l-0.622-2.212
							c-0.116-0.413-0.418-0.749-0.817-0.909l-1.094-0.438C526.198,305.492,525.09,306.555,525.483,307.674L525.483,307.674z"/>
					</g>
					<g>
						<g>
							<path style="fill:#FFBDBD;" d="M544.321,330.389c0,0,15.708,18.706,19.253,15.648l-5.554-11.958
								c-0.042,0.307-13.084-10.125-13.084-10.125s-8.891-3.606-9.116-2.453c-0.156,0.801,5.327,1.435,4.807,1.429
								c-0.056-0.001-4.834-0.864-5.302-0.408c-0.691,0.674,4.902,1.761,4.833,2.14c0,0-5.587,0.037-5.762,0.595
								c-0.175,0.558,5.575,0.972,5.461,1.139c-0.114,0.167-3.022-0.039-3.367,0.686
								C536.145,327.805,544.321,330.389,544.321,330.389z"/>
							<path style="fill:#FFBDBD;" d="M541.747,323.152c0,0-2.121-4.299-1.174-3.783c0.946,0.516,5.798,5.87,5.798,5.87"/>
						</g>
						<path style="fill:#FFFFFF;" d="M569.517,309.185c0,0-3.983,7.124-5.272,10.574c-1.289,3.45-6.779,13.72-6.779,13.72
							l-10.879-8.555l-3.168,7.382c0,0,15.898,16.481,19.837,14.823C567.196,345.47,583.23,316.82,569.517,309.185z"/>
					</g>
				</g>
			</g>
		</g>
	</g>
	<g>
		<g>
			<path style="fill:#25334C;" d="M470.47,182.793l7.325,19.47l-11.569,11.363c3.398,1.012,30.372,0.222,29.485-10.863
				c-0.415-5.188-3.656-12.191-5.024-16.118L470.47,182.793z"/>
			<path style="fill:#F69491;" d="M458.087,212.891c-0.246-0.112-6.281,0.376-6.54-0.233c-0.391-0.916,6.349-1.34,6.463-1.352
				c1.715-0.19-6.433,0.657-6.853,0.092c-0.42-0.564,3.27-1.207,3.4-1.232c0,0,3.192-0.364,3.214-0.602
				c0.023-0.238-7.354-0.12-6.914-0.734c0.44-0.615,5.135-1.405,6.324-1.451c1.189-0.045,2.464-0.638,3.358-0.765
				c1.232-0.175-4.512-1.949-3.373-3.317c0,0,5.215,0.83,6.992,1.677c0.934,0.446,14.053-6.875,14.053-6.875
				c1.373-0.758,1.394-1.07,0.672-2.462l-9.089-20.152c0,0-3.558-9.393,1.111-9.679c6.959-0.426,18.512,8.529,23.337,32.685
				c1.095,5.481-1.385,9.421-8.582,11.468l-6.242,1.088l0.053,0.136c-12.667,2.479-20.954,2.741-22.476,2.847
				c-0.87,0.06-3.507-0.032-3.639-0.365C453.051,212.903,458.332,213.003,458.087,212.891z"/>
			<path style="fill:#FFFFFF;stroke:#FFFFFF;stroke-width:0.2045;stroke-miterlimit:10;" d="M467.486,203.741
				c-1.732,0.825-3.057,1.364-3.331,1.234c-1.776-0.848-6.992-1.678-6.992-1.678c-1.138,1.369,4.606,3.142,3.374,3.317
				c-0.894,0.127-2.169,0.72-3.358,0.765c-1.189,0.045-5.884,0.836-6.324,1.451c-0.44,0.615,5.61,0.689,5.587,0.928
				s-1.888,0.409-1.888,0.409c-0.13,0.025-3.82,0.668-3.4,1.232c0.42,0.564,8.568-0.282,6.853-0.093
				c-0.113,0.013-6.853,0.437-6.463,1.352c0.26,0.609,6.295,0.121,6.541,0.233c0.246,0.112-5.036,0.012-4.733,0.774
				c0.132,0.333,2.769,0.426,3.639,0.365c1.094-0.076,5.68-0.233,12.875-1.235C469.107,209.768,468.327,206.747,467.486,203.741z"/>
		</g>
		<g>
			<path style="fill:#7692E0;" d="M468.454,160.495c0,0-15.306,0.074,6.275,30.214l18.781-4.548
				C493.509,186.16,479.655,157.214,468.454,160.495z"/>
			
				<line style="fill:none;stroke:#FFFFFF;stroke-width:0.1213;stroke-miterlimit:10;" x1="472.817" y1="187.17" x2="492.014" y2="182.409"/>
		</g>
	</g>
</g>
</svg>
